<?xml version="1.0" encoding="UTF-8"?>
<svg version="1.1" xmlns="http://www.w3.org/2000/svg" width="512" height="512">
<path d="M0 0 C3.77738121 -0.13004595 6.63665298 -0.04928928 10.08984375 1.51171875 C10.8588501 1.85106445 11.62785645 2.19041016 12.42016602 2.54003906 C13.25088623 2.91870117 14.08160645 3.29736328 14.9375 3.6875 C16.79872973 4.51081091 18.66076245 5.33230801 20.5234375 6.15234375 C22.05629395 6.83079346 22.05629395 6.83079346 23.62011719 7.52294922 C29.39462781 10.0464821 35.21088141 12.47011584 41.02566528 14.89907837 C43.01296847 15.72930738 44.99963131 16.56104887 46.98608398 17.39331055 C54.13164945 20.38625146 54.13164945 20.38625146 61.28466797 23.36132812 C67.22916112 25.82526928 73.13242411 28.35845914 79 31 C85.95605437 34.11319916 92.94283991 37.12178569 100 40 C99.42867631 44.59123977 98.19588739 48.15401419 96.1875 52.3125 C95.73334717 53.26249878 95.73334717 53.26249878 95.27001953 54.23168945 C94.18753593 56.49148623 93.09375056 58.74563597 92 61 C90.12213817 64.89445751 88.24842157 68.79090488 86.375 72.6875 C85.86557861 73.74598145 85.35615723 74.80446289 84.83129883 75.89501953 C76.44466923 93.35712959 68.36032584 110.95887958 60.38842773 128.61352539 C57.66335116 134.61921151 54.7718118 140.50660931 51.77734375 146.3828125 C49.11499898 151.70750203 46.75627996 157.17495365 44.33789062 162.61328125 C41.63950529 168.65361913 38.74909341 174.55027853 35.74609375 180.4453125 C33.71379292 184.58265871 31.849233 188.7784829 30 193 C27.64956442 198.36568619 25.22266495 203.65296719 22.5625 208.875 C19.30208369 215.27700196 16.34716 221.79265221 13.45922852 228.37060547 C11.31923169 233.20631357 9.03977612 237.94509861 6.65234375 242.6640625 C3.20583476 249.48124739 0.05050829 256.41003879 -3.05331421 263.38864136 C-7.22368161 272.75753804 -11.42021348 282.09395564 -16.10229492 291.22070312 C-20.53509909 299.91550402 -24.47119175 308.85088611 -28.51171875 317.73242188 C-41.00868769 345.16999278 -41.00868769 345.16999278 -45.5 354 C-49.21517895 361.30532784 -52.60845145 368.75304584 -56.02636719 376.20117188 C-60.21624323 385.3253313 -64.47489528 394.41555228 -68.75 403.5 C-73.05847274 412.65602525 -77.30522182 421.83004548 -81.35644531 431.10351562 C-83.72466342 436.48464788 -86.32960667 441.72367894 -88.99951172 446.96044922 C-91.89945998 452.69072425 -94.4924786 458.5361068 -97.06591797 464.41870117 C-99.63727753 470.26528729 -102.42756568 475.95892219 -105.32421875 481.65234375 C-108.02034529 487.03831216 -110.51251993 492.51478754 -113 498 C-113.66 498 -114.32 498 -115 498 C-115.51409538 490.7751238 -113.816132 484.24601244 -112.0390625 477.296875 C-111.10027582 473.62336192 -110.19300623 469.94201551 -109.28125 466.26171875 C-109.09119385 465.49797943 -108.9011377 464.73424011 -108.70532227 463.94735718 C-106.6910871 455.8235526 -104.84168361 447.66430228 -103 439.5 C-100.43062549 428.14179582 -97.76916443 416.81113182 -95 405.5 C-90.27926437 386.20861312 -85.89439513 366.84279864 -81.52734375 347.46875 C-81.30780029 346.49703857 -81.08825684 345.52532715 -80.86206055 344.52416992 C-80.48012612 342.83204958 -80.09980281 341.13956381 -79.72192383 339.4465332 C-78.62659594 334.58637007 -77.43817536 329.75536322 -76.21484375 324.92578125 C-73.684745 314.90029981 -71.393824 304.81997006 -69.08435059 294.74185181 C-65.18979958 277.75362074 -61.27119714 260.77123799 -57.25 243.8125 C-57.06853424 243.04683716 -56.88706848 242.28117432 -56.70010376 241.49230957 C-54.8202306 233.56806004 -52.9206752 225.64893891 -50.984375 217.73828125 C-50.32273848 215.0338977 -49.66121566 212.32948648 -49 209.625 C-48.83802124 208.96279449 -48.67604248 208.30058899 -48.50915527 207.61831665 C-45.49177669 195.25806336 -42.6950706 182.85221735 -39.92825317 170.43380737 C-37.22620837 158.31528746 -34.40350006 146.23444923 -31.44387817 134.1763916 C-28.83868496 123.55672194 -26.35420137 112.91410487 -23.9375 102.25 C-21.22014626 90.26114145 -18.40986002 78.30100845 -15.50366211 66.35620117 C-13.11120242 56.50839181 -10.82017368 46.63939053 -8.5546875 36.76171875 C-6.76513932 28.96139405 -4.94552526 21.16813987 -3.125 13.375 C-2.88885986 12.36386642 -2.88885986 12.36386642 -2.64794922 11.33230591 C-1.76573351 7.55476911 -0.8830847 3.77733375 0 0 Z " fill="#FFDC5E" transform="translate(115,0)"/>
<path d="M0 0 C6.72789205 15.43764376 13.11039408 31.0064989 19.41925049 46.61846924 C21.46754575 51.68688083 23.52277452 56.75243883 25.58203125 61.81640625 C25.87518219 62.53735977 26.16833313 63.25831329 26.47036743 64.00111389 C27.60868573 66.80039438 28.74714217 69.59961867 29.88562012 72.39883423 C30.28206726 73.37377335 30.28206726 73.37377335 30.68652344 74.3684082 C31.07247177 75.31732689 31.07247177 75.31732689 31.46621704 76.28541565 C32.20000857 78.0926589 32.93038147 79.90128904 33.66064453 81.70996094 C34.51057942 83.79777036 35.37453313 85.87997105 36.25732422 87.95410156 C36.62486816 88.82776367 36.99241211 89.70142578 37.37109375 90.6015625 C37.68876709 91.33971191 38.00644043 92.07786133 38.33374023 92.83837891 C39.0976917 95.31695212 39.04543254 97.41978481 39 100 C32.5465414 102.0386223 26.12802316 103.71488176 19.48828125 105.015625 C18.61056564 105.192005 17.73285004 105.36838501 16.82853699 105.55010986 C14.95865323 105.92580028 13.08838884 106.29960055 11.21777344 106.67163086 C6.2534681 107.65990307 1.29251238 108.66460503 -3.66796875 109.671875 C-4.65316498 109.87192139 -5.63836121 110.07196777 -6.65341187 110.27807617 C-14.62967552 111.9063862 -22.56849369 113.66515584 -30.5 115.5 C-43.66818161 118.53636542 -56.88819982 121.26306093 -70.13201904 123.94622803 C-84.86616417 126.93225563 -99.57401255 130.02403844 -114.26925659 133.19570923 C-125.95827738 135.7177805 -137.65720544 138.17783804 -149.375 140.5625 C-161.48252865 143.02710261 -173.54464403 145.6608963 -185.59832764 148.37576294 C-199.304261 151.45712277 -213.05535866 154.28647305 -226.82424927 157.07119751 C-239.35087314 159.60733735 -251.84493639 162.25047516 -264.3125 165.0625 C-276.93165009 167.90783185 -289.57461735 170.60383603 -302.25 173.1875 C-303.08664185 173.35808929 -303.92328369 173.52867859 -304.78527832 173.70443726 C-308.79580592 174.52157908 -312.80670232 175.33689067 -316.81787109 176.15087891 C-334.71796188 179.78373495 -352.56584231 183.63995513 -370.409729 187.53793335 C-383.91602965 190.48678679 -397.43357285 193.36121968 -410.98376465 196.10128784 C-418.57793416 197.63807243 -426.15017433 199.2380734 -433.69921875 200.984375 C-434.41156174 201.14859451 -435.12390472 201.31281403 -435.85783386 201.48200989 C-439.24437477 202.26450526 -442.627449 203.05790704 -446.00756836 203.86791992 C-452.15423663 205.30389489 -457.68365753 206.3859112 -464 206 C-464 205.34 -464 204.68 -464 204 C-450.88664338 198.16073471 -437.77012145 192.32996339 -424.625 186.5625 C-415.56364373 182.58520642 -406.52639335 178.55587767 -397.5 174.5 C-385.37958778 169.05435677 -373.22955997 163.67889737 -361.06054688 158.34277344 C-355.87175645 156.066262 -350.68605402 153.78273646 -345.5 151.5 C-343.41668106 150.58330062 -341.33334774 149.66663393 -339.25 148.75 C-338.21875 148.29625 -337.1875 147.8425 -336.125 147.375 C-333 146 -329.875 144.625 -326.75 143.25 C-325.2026416 142.5691333 -325.2026416 142.5691333 -323.62402344 141.87451172 C-321.54400292 140.95934171 -319.46392494 140.0443023 -317.38378906 139.12939453 C-312.1242868 136.81590536 -306.86585234 134.5000422 -301.609375 132.1796875 C-291.71973408 127.81692229 -281.82134037 123.4820988 -271.875 119.25 C-264.89911465 116.27917262 -258.01896415 113.170458 -251.1640625 109.9296875 C-242.61585033 105.93084836 -233.93088883 102.22328448 -225.28613281 98.43945312 C-220.02107276 96.13315342 -214.7607093 93.81620215 -209.5 91.5 C-207.41669069 90.58327875 -205.33335731 89.66661216 -203.25 88.75 C-201.703125 88.069375 -201.703125 88.069375 -200.125 87.375 C-197 86 -193.875 84.625 -190.75 83.25 C-189.71842773 82.79608887 -188.68685547 82.34217773 -187.62402344 81.87451172 C-185.54400292 80.95934171 -183.46392494 80.0443023 -181.38378906 79.12939453 C-176.1242868 76.81590536 -170.86585234 74.5000422 -165.609375 72.1796875 C-155.71973408 67.81692229 -145.82134037 63.4820988 -135.875 59.25 C-128.89911465 56.27917262 -122.01896415 53.170458 -115.1640625 49.9296875 C-106.61585033 45.93084836 -97.93088883 42.22328448 -89.28613281 38.43945312 C-84.02107279 36.13315343 -78.76070357 33.81621511 -73.5 31.5 C-71.40497432 30.578065 -69.30992223 29.65619 -67.21484375 28.734375 C-66.18214355 28.27998047 -65.14944336 27.82558594 -64.08544922 27.35742188 C-61.07923269 26.03485787 -58.07284539 24.71268288 -55.06640625 23.390625 C-54.07970947 22.95661377 -53.0930127 22.52260254 -52.07641602 22.07543945 C-50.07058603 21.19332921 -48.06456446 20.31165448 -46.05834961 19.43041992 C-40.4669781 16.97263094 -34.88033929 14.50456244 -29.29957581 12.02279663 C-26.16382888 10.62869469 -23.02687463 9.23732055 -19.88986206 7.84606934 C-18.34314292 7.15917944 -16.79701575 6.47095495 -15.25149536 5.78137207 C-13.08708967 4.81577222 -10.92072718 3.85469635 -8.75390625 2.89453125 C-8.09990845 2.60135513 -7.44591064 2.30817902 -6.77209473 2.00611877 C-2.22763946 0 -2.22763946 0 0 0 Z " fill="#FFDC5E" transform="translate(473,306)"/>
</svg>
